# xmcd
#
# Track frame offsets:
#	150
#	10925
#	29800
#	41432
#	53415
#	66910
#	81940
#	94170
#	105970
#	115507
#	132430
#	142082
#	154925
#	167875
#	178630
#	190010
#	203177
#	215430
#	229110
#	241037
#
# Disc length: 3368 seconds
#
# Revision: 0
# Processed by: cddbd v1.5.1PL0 Copyright (c) Steve Scherf et al.
# Submitted via: dBpowerAMP V4.0
#
DISCID=0e0d2614
DTITLE=Music box  blues - VOL 3
DYEAR=1900
DGENRE=Blues
TTITLE0=Mistery train - junior parker
TTITLE1=Shake it baby - John lee hooker
TTITLE2=Howlin' for my baby - howlin' wolf
TTITLE3=Bright lights big city - Jimmy Reed
TTITLE4=Got me a louisiana woman - Lightin' hopkins
TTITLE5=It hurts me too - Elmore James
TTITLE6=Double trouble - Otis Rush
TTITLE7=No more doggin' - Rosco gordon
TTITLE8=Rockin' the house - memphis slim
TTITLE9=Who's been talking - Robert cray
TTITLE10=So long baby goodbye - Willie johnson
TTITLE11=Going back home - big joe williams
TTITLE12=Bear cat - Rufus thomas
TTITLE13=Out of bad luck - magic sam
TTITLE14=You don't have to go - Sam myers
TTITLE15=bad luck and trouble - boogie jack
TTITLE16=seams like a million years
TTITLE17=Cotton crap blues - James Cotton
TTITLE18=Hart's bread boogie - Billy Love
TTITLE19=Mean ole frisco - arthur crudup
EXTD=
EXTT0=
EXTT1=
EXTT2=
EXTT3=
EXTT4=
EXTT5=
EXTT6=
EXTT7=
EXTT8=
EXTT9=
EXTT10=
EXTT11=
EXTT12=
EXTT13=
EXTT14=
EXTT15=
EXTT16=
EXTT17=
EXTT18=
EXTT19=
PLAYORDER=
